<?xml version="1.0" encoding="utf-8"?>
<!-- Generator: Adobe Illustrator 28.1.0, SVG Export Plug-In . SVG Version: 6.00 Build 0)  -->
<svg version="1.0" id="Layer_1" xmlns="http://www.w3.org/2000/svg" xmlns:xlink="http://www.w3.org/1999/xlink" x="0px" y="0px"
	 viewBox="0 0 300 300" enable-background="new 0 0 300 300" xml:space="preserve">
<g>
	<path fill="#FFEEBE" d="M247.63,186.9c-1.42,0.4-2.66,0.91-3.95,1.08c-3.91,0.51-7.2-0.72-9.44-4.05c-2.14-3.19-2-6.58-0.09-9.8
		c2.03-3.43,5.26-4.84,9.18-4.69c1.32,0.05,2.59,0.43,3.82,0.93c2.01,0.82,2.11,0.74,2.23-1.49c0.14-2.41-0.17-4.78-0.82-7.08
		c-1.08-3.85-2.79-7.41-5.5-10.39c-5.64-6.19-12.52-10.23-20.95-10.91c-6.98-0.56-13.32,1.57-18.92,5.83
		c-1,0.76-1.41,1.51-0.64,2.68c0.31,0.46,0.48,1.06,0.58,1.61c0.32,1.7-0.52,3.37-2.01,4.15c-1.52,0.8-3.31,0.55-4.56-0.67
		c-0.35-0.34-0.65-0.75-0.89-1.17c-2.8-4.81-6.8-8.45-11.34-11.52c-9.93-6.71-20.82-10.87-32.82-11.91
		c-1.89-0.16-3.78-0.11-5.67-0.02c-1.28,0.07-2.21,0.42-2.5,1.84c-0.16,0.8-0.57,1.54-1.09,2.19c-1.25,1.57-3.13,2.05-4.85,1.23
		c-1.69-0.81-2.58-2.64-2.09-4.54c0.35-1.35,0.9-2.65,1.26-4c3.12-11.59,0.02-21.62-8.41-29.76c-8.72-8.42-19.22-10.21-30.67-6.41
		c-2.2,0.73-4.18,1.89-5.66,3.81c0.53,0.96,1.53,0.99,2.3,1.37c5.26,2.66,7.89,8.28,6.33,13.59c-1.74,5.91-7.77,7.94-12.73,4.27
		c-2.4-1.77-3.93-4.17-4.94-6.94c-0.25-0.67-0.23-1.46-0.93-2.06c-2.46,1.31-3.81,3.53-4.78,6c-1.29,3.28-1.53,6.74-1.28,10.21
		c0.31,4.33,1.52,8.41,3.74,12.16c0.95,1.6,0.99,1.6,2.73,0.91c2.76-1.09,5.53-2.14,8.44-2.74c0.64-0.13,1.29-0.3,1.94-0.3
		c2.07-0.02,3.73,1.35,4.06,3.26c0.32,1.81-0.68,3.54-2.53,4.32c-0.45,0.19-0.93,0.33-1.41,0.45
		c-12.93,3.07-22.75,10.69-29.97,21.52c-12.7,19.05-15.53,39.67-8.7,61.56c0.81,2.6,1.98,5.05,3.18,7.49
		c0.36,0.73,0.71,1.5,0.9,2.29c0.41,1.7-0.37,3.35-1.86,4.19c-1.51,0.86-3.24,0.65-4.57-0.54c-1.01-0.91-1.53-2.14-2.11-3.31
		c-3.16-6.49-5.27-13.32-6.27-20.45c-2.63-18.88,0.95-36.54,10.85-52.84c4.67-7.69,10.66-14.21,18.08-19.34
		c2.03-1.4,1.78-1.22,0.6-3.22c-4.42-7.51-6.18-15.57-4.53-24.2c1.42-7.44,5.42-12.97,12.49-16.04c0.97-0.42,1.57-0.98,1.96-2.01
		c1.69-4.45,4.87-7.6,9.08-9.67c8.96-4.38,18.26-4.71,27.63-1.69c16.23,5.23,26.37,20.59,26.33,37.35c0,0.57-0.15,1.15,0.17,1.72
		c1.09,0.34,1.61-0.61,2.27-1.13c9.06-7.26,18.09-14.55,27.13-21.82c2.95-2.37,5.9-4.74,8.85-7.12c0.43-0.35,0.99-0.59,1.12-1.22
		c-0.24-0.39-0.68-0.43-1.04-0.63c-2.34-1.26-2.9-3.38-1.31-5.55c1.12-1.52,2.45-2.88,3.68-4.32c1.11-1.3,1.13-1.33-0.05-2.61
		c-0.89-0.97-1.87-1.85-2.82-2.77c-1.74-1.67-2.19-3.33-1.37-5.06c0.8-1.7,2.79-2.67,5.03-2.27c1.61,0.29,3.19,0.79,4.78,1.21
		c0.56,0.15,1.13,0.26,1.66,0.49c1.72,0.74,3.09,0.51,4.33-1.04c0.75-0.94,1.79-1.71,2.82-2.38c2.67-1.75,5.35-0.88,6.67,2.06
		c0.56,1.24,0.62,2.56,0.57,3.87c-0.05,1.18,0.42,1.81,1.56,2.13c1.1,0.32,2.21,0.66,3.18,1.32c3.35,2.26,3.21,5.93-0.29,7.93
		c-1.01,0.58-2.13,0.88-3.25,1.14c-1.06,0.25-1.46,0.84-1.41,1.94c0.07,1.73-0.01,3.46-0.02,5.19c0,0.25,0,0.49-0.01,0.74
		c-0.09,2.23-0.45,4.37-2.88,5.24c-2.32,0.83-3.93-0.44-5.33-2.12c-0.25-0.3-0.42-0.72-0.93-0.68c-0.59,1.79-1.54,44.19-1.06,47.12
		c0.69,0.13,1-0.45,1.43-0.78c5.79-4.58,12.42-7.12,19.74-7.64c5.88-0.42,11.41,1.15,16.68,3.72c7.28,3.55,13.32,8.46,17.31,15.63
		c2.47,4.45,3.94,9.22,4.36,14.3c0.31,3.67-0.21,7.23-1.65,10.63c-0.44,1.03-0.53,1.97-0.15,3.08c1.51,4.47,0.93,8.8-1.25,12.89
		c-3.28,6.15-8.4,10-15.14,11.73c-2.6,0.67-2.59,0.66-2.04,3.34c0.96,4.64,1.2,9.3,0.18,13.97c-0.16,0.73-0.35,1.44-0.74,2.08
		c-0.93,1.52-2.52,2.18-4.24,1.81c-1.67-0.36-2.87-1.7-2.96-3.49c-0.05-0.89,0.08-1.81,0.23-2.7c0.73-4.4,0.24-8.69-1.09-12.91
		c-0.3-0.96-0.73-1.75-1.55-2.44c-1.61-1.37-2-3.01-1.33-4.6c0.67-1.59,2.16-2.51,4.2-2.42c1.81,0.08,3.62,0.18,5.43-0.05
		c5.14-0.66,9.11-3.15,11.76-7.64C247.45,188.66,248,187.98,247.63,186.9z M190.46,96.63c-4.7,3.09-30.59,24.21-31.56,25.75
		c11.04,2.16,21.17,6.46,30.77,12.94C189.93,122.26,190.19,109.65,190.46,96.63z M242.83,177.48c-0.78,0.03-1.51,0.15-1.88,0.94
		c-0.18,0.4-0.18,0.82,0.12,1.15c0.58,0.64,1.33,0.64,2.05,0.33c0.72-0.3,1.77-0.59,1.59-1.55
		C244.56,177.6,243.54,177.63,242.83,177.48z M90.04,102.35c0.45,1.88,1.02,3.22,2.43,4.25C92.9,104.21,92.57,103.62,90.04,102.35z"
		/>
	<path fill="#FFEEBE" d="M131.34,175.15c7.35,0.74,13.9,3.09,18.56,9.27c0.05,0.07,0.1,0.13,0.14,0.2
		c3.72,5.57,1.37,10.99-5.29,11.94c-5.81,0.83-11.05-0.98-15.9-4.05c-2.6-1.65-4.85-3.67-6.28-6.47c-2.32-4.55-0.52-8.84,4.36-10.31
		C128.35,175.3,129.82,175.14,131.34,175.15z"/>
	<path fill="#FFEEBE" d="M210.54,164.44c-0.03-5.39,4.27-9.87,9.52-9.92c5.22-0.05,9.25,4.08,9.23,9.46
		c-0.02,5.39-4.36,9.79-9.64,9.78C214.53,173.74,210.57,169.68,210.54,164.44z"/>
	<path fill="#FFEEBE" d="M122.56,121.97c-0.02,5.41-4.33,9.79-9.63,9.78c-5.12-0.01-9.09-4.07-9.12-9.31
		c-0.03-5.49,4.41-10.01,9.76-9.93C118.69,112.59,122.58,116.69,122.56,121.97z"/>
	<path fill="#FFEEBE" d="M109.33,178.75c-2.7,0.02-4.87-1.75-5.44-4.46c-0.96-4.57,2.68-9.95,7.29-10.77
		c2.27-0.4,4.58,0.7,5.63,2.68C119.45,171.2,114.99,178.7,109.33,178.75z"/>
	<path fill="#FFEEBE" d="M172.16,189.5c0.01,4.09-2.96,8.02-6.8,8.99c-3.44,0.87-6.51-1.21-6.97-4.74
		c-0.56-4.23,2.55-8.95,6.66-10.1C168.94,182.57,172.15,185.2,172.16,189.5z"/>
	<path fill="#FFEEBE" d="M144.62,216.89c-6.63,0.01-12.32-4.07-14.28-9.62c-0.61-1.74-0.25-3.03,1.02-3.62
		c1.28-0.59,2.46-0.03,3.29,1.69c0.61,1.27,1.23,2.53,2.2,3.55c2.43,2.57,5.33,3.81,8.9,2.95c1.85-0.45,3.24-1.56,4.28-3.13
		c0.36-0.55,0.7-1.13,1.15-1.59c0.7-0.72,1.59-0.87,2.49-0.42c0.98,0.49,1.44,1.31,1.3,2.43c-0.08,0.67-0.4,1.25-0.75,1.81
		C151.8,214.79,148.3,216.75,144.62,216.89z"/>
</g>
</svg>
