<?xml version="1.0" encoding="utf-8"?>
<!-- Generator: Adobe Illustrator 28.1.0, SVG Export Plug-In . SVG Version: 6.00 Build 0)  -->
<svg version="1.0" id="Layer_1" xmlns="http://www.w3.org/2000/svg" xmlns:xlink="http://www.w3.org/1999/xlink" x="0px" y="0px"
	 viewBox="24 90 252 104" enable-background="new 0 0 300 300" xml:space="preserve">
<g>
	<g>
		<g>
			<path fill="#FFEEBE" d="M225.09,154.49c-3.49-1.77-7.57-0.89-10.37,0.16c-9.91,3.83-14.17,14.64-11.78,21.95
				c0.84,2.4,2.5,4.24,4.81,5.32c2.62,1.22,5.77,1.29,8.66,0.2c1.8-0.64,3.45-1.61,5.2-3.07c0.63-0.53,1.39-1.18,2.19-1.18
				c0.07,0,0.14,0,0.2,0.01c0.45,0.06,0.84,0.34,1.16,0.83c0.27,0.42,0.51,0.85,0.75,1.26c0.58,1.01,1.13,1.96,1.92,2.77
				c1.87,2.05,5.26,3.48,7.86,2.12c0.99-0.52,1.53-1.42,1.44-2.41c-0.1-1.05-0.86-1.92-1.99-2.27l-0.04-0.01
				c-3.82-0.86-4.87-3.36-5.33-7.11c-0.34-2.92-0.07-6.06,0.83-9.6c0.57-2.25,0.19-3.75-1.34-5.35
				C227.88,156.59,226.64,155.29,225.09,154.49z M224.68,163.52c-0.72,2.92-3.05,10.01-9.18,12.95c-1.04,0.5-2.22,0.81-3.34,0.81
				c-1.33,0-2.56-0.44-3.36-1.53c-1.28-1.66-1.03-4.13-0.77-5.46c1.13-5.51,5.51-10.22,10.65-11.47c1.25-0.34,3.23-0.44,4.66,0.39
				c0.77,0.45,1.27,1.1,1.48,1.94l0.01,0.06C225.01,162.01,224.85,162.82,224.68,163.52z"/>
		</g>
		<g>
			<path fill="#FFEEBE" d="M238.22,150.23c-0.69,0.29-1.21,0.94-1.35,1.69c-0.27,1.15-0.14,2.36,0,3.54
				c0.04,0.39,0.09,0.77,0.12,1.15c0.26,3.66,0.5,7.39,0.73,11c0.12,1.8,0.23,3.6,0.35,5.41l0.02,0.33
				c0.08,1.14,0.17,2.31,0.74,3.25c0.43,0.73,1.19,1.19,2.05,1.23c0.87,0.04,1.69-0.34,2.2-1.04c0.86-1.1,1.11-2.55,1.34-3.96
				l0.06-0.34c0.6-4.15,1.26-7.28,2.14-10.14c0.66-2.61,2.44-7.32,6.84-9.34c0.98-0.48,2.09-0.8,3.19-0.95
				c0.47-0.07,0.94-0.09,1.4-0.12c0.63-0.04,1.22-0.07,1.79-0.2l0.06-0.01c0.87-0.16,1.62-0.77,1.97-1.6
				c0.31-0.73,0.24-1.52-0.19-2.16c-0.53-0.82-1.47-1.32-2.78-1.52c-4.71-0.5-9.79,1.62-13.24,5.51c-0.28,0.29-0.54,0.62-0.81,0.97
				c-0.43,0.55-0.87,1.13-1.4,1.52c-0.28,0.19-0.54,0.23-0.78,0.15c-0.5-0.17-0.72-0.83-1-1.66c-0.32-0.95-0.71-2.12-1.57-2.56
				l-0.03-0.02c-0.33-0.21-0.69-0.32-1.06-0.32C238.75,150.06,238.48,150.12,238.22,150.23z"/>
		</g>
		<g>
			<g>
				<path fill="#FFEEBE" d="M183.79,174.58c0.89-3.59,0.24-7.51-1.88-10.72c-2.34-3.56-6.03-5.49-10.11-5.32l-0.06,0
					c-2.09,0.07-4.24,0.7-6.23,1.81c-0.15,0.07-0.3,0.16-0.45,0.25c-0.62,0.37-1.46,0.87-2.18,0.38l-0.07-0.06
					c-0.61-0.7-0.33-2.27-0.05-3.78c0.1-0.57,0.2-1.1,0.22-1.44c0.19-1.54,0.39-3.04,0.58-4.55c0.86-6.66,1.75-13.54,2.2-20.36
					c-0.02-1.16-0.32-2.67-1.59-3.09c-0.9-0.3-1.98,0.1-2.47,0.91c-0.63,0.96-0.81,2.3-0.97,3.48l-0.04,0.3
					c-0.37,2.53-0.72,5.06-1.07,7.58c-0.96,6.87-1.95,13.96-3.18,20.9c-0.36,2.53-1.94,4.82-4.33,6.27
					c-4.71,2.97-10.34,3.62-15.05,1.72c-0.81-0.3-1.8-0.83-1.94-1.66c-0.08-0.49,0.17-0.97,0.73-1.43
					c4.04-2.8,10.75-7.45,9.42-14.03c-0.81-3.3-3.08-5.55-6.23-6.16c-3.83-0.75-8.03,1.01-10.46,4.37
					c-3.19,4.27-3.28,7.72-3.34,10.24c-0.06,2.67-0.11,4.6-4.15,4.9c-2.08,0.36-5.02-0.19-6.29-1.74c-0.5-0.61-0.98-1.67-0.38-3.22
					l0.03-0.06c5.39-8.61,11.62-20.15,11.93-33.14c0.15-4.35-1.67-11.01-7.27-11.54c-3.15-0.34-6.51,1.98-8.44,4.43
					c-4.69,6.32-9.33,17.99-4.74,37.69c0.55,1.88,0.34,3.51-0.62,4.67c-1.28,1.63-2.97,2.89-4.46,3.95
					c-1.89,1.29-8.5,5.21-14.19,1.99c-0.24-0.15-0.95-0.58-0.84-1.21c0.13-0.78,1.42-1.12,2.72-1.4l0.15-0.03
					c0.87-0.21,1.65-0.44,2.36-0.69c1.58-0.55,3.01-1.31,4.25-2.26c2.71-1.89,4.27-5.04,4.08-8.24c-0.17-2.81-1.7-5.18-4.2-6.51
					c-5.72-3-12.59,0.05-15.93,4.73c-3.92,5.02-3.67,12.18,0.59,17.43c0.54,0.7,1.1,1.63,0.74,2.73c-0.98,3-5.55,6.1-8.39,7.45
					c-8.15,3.9-18.44,1.73-23.94-5.06c-5.01-6.52-5.41-14.98-1.06-22.07c4.64-7.57,13.15-11.42,21.66-9.83
					c0.55,0.08,1.13,0.22,1.68,0.35c1.39,0.33,2.7,0.64,3.97,0.2c0.81-0.28,1.45-0.98,1.7-1.85c0.25-0.87,0.08-1.79-0.45-2.46
					c-0.42-0.57-1.03-1.03-1.88-1.42c-2.66-1.09-5.55-1.63-8.51-1.63c-4.92,0-10.04,1.49-14.68,4.38
					c-9.78,5.8-14.54,16.7-12.13,27.78c1.11,5.11,3.63,9.66,7.29,13.14c3.94,3.76,9.05,6.07,14.78,6.68
					c9.59,0.93,19.36-3.49,24.9-11.26c0.47-0.61,0.97-1.22,1.63-1.6c0.65-0.39,1.48-0.56,2.63-0.52c5.56,0.41,11.38-1.68,16.41-5.89
					c2.74-2.42,3.34-2.18,5.71-0.65c0.51,0.33,1.08,0.69,1.8,1.11c2.39,1.19,4.9,1.53,8.35,1.13c0.67-0.05,1.34-0.19,2-0.32
					c1.42-0.28,2.88-0.58,4.3-0.07c0.83,0.3,1.56,0.84,2.27,1.35c0.3,0.22,0.59,0.43,0.87,0.61c4.92,3.25,10.94,4.17,16.95,2.57
					l0.04-0.01c0.39-0.05,0.89-0.24,1.42-0.43c1.1-0.4,2.24-0.82,3.06-0.4l0.05,0.03l0.04,0.04c0.74,0.75,0.5,1.84,0.28,2.79
					c-0.08,0.34-0.15,0.66-0.17,0.94l-0.01,0.06c-0.98,4.07,3.03,6.51,4.8,7.38c4.28,2.15,9.49,2.46,14.3,0.85
					c4.7-1.57,8.57-4.83,10.61-8.95C183.28,176.26,183.58,175.43,183.79,174.58 M159.57,176.91c3.64-8.97,8.17-13.28,13.45-12.82
					c3.16,0.4,5.61,3.2,5.71,6.51c0.23,3.76-2.19,7.41-6.18,9.3l-0.05,0.02c-2.15,1-4.5,1.53-6.74,1.53c-0.43,0-0.85-0.02-1.27-0.06
					c-2.94-0.25-4.61-0.97-5.11-2.19C159.05,178.42,159.33,177.52,159.57,176.91z M84.25,161.13c-0.99,0-1.85-0.26-2.14-1.13
					l-0.03-0.14c-0.06-1.72,0.72-3.5,2.19-5.01c1.69-1.73,4-2.8,6.05-2.8c0.02,0,0.04,0,0.06,0c1.71,0.04,3.03,0.79,3.53,2.01
					c0.49,1.18,0.11,2.54-1.04,3.73c-1.48,1.57-3.56,2.3-5.2,2.76c-0.16,0.04-0.33,0.08-0.52,0.12
					C86.36,160.86,85.24,161.13,84.25,161.13z M113.21,152.04c-0.04,0.08-0.08,0.15-0.12,0.22c-0.35,0.64-0.84,1.52-1.6,1.55
					l-0.03,0l-0.06-0.01c-0.26-0.04-0.62-0.23-0.86-0.94c-0.2-0.62-0.28-1.21-0.36-1.79c-0.02-0.15-0.04-0.29-0.06-0.44
					c-1.23-10.16-0.25-23.14,6.18-29.13c0.67-0.55,1.64-1,2.35-0.77c1.41,0.48,2.14,2.29,2.19,5.36
					C120.78,133.92,118.35,142.16,113.21,152.04z M134.14,160.39c-0.73,0.52-1.6,1.14-2.35,1.14c-0.2,0-0.4-0.05-0.58-0.15
					l-0.08-0.06c-0.63-0.55-0.54-1.5-0.47-2.2l0.01-0.11c0.49-3.72,2.17-6.6,4.6-7.91c1.11-0.6,2.57-0.57,3.55,0.06
					c0.78,0.5,1.17,1.3,1.11,2.26c-0.33,2.83-3.69,5.4-5.3,6.63C134.47,160.15,134.31,160.27,134.14,160.39z"/>
			</g>
			<g>
				<path fill="#FFEEBE" d="M187.84,150.23c-0.69,0.29-1.21,0.94-1.35,1.69c-0.27,1.15-0.14,2.36,0,3.54
					c0.04,0.39,0.09,0.77,0.12,1.15c0.26,3.66,0.5,7.39,0.73,11c0.12,1.8,0.23,3.6,0.35,5.41l0.02,0.33
					c0.08,1.14,0.17,2.31,0.74,3.25c0.43,0.73,1.19,1.19,2.05,1.23c0.87,0.04,1.69-0.34,2.2-1.04c0.86-1.1,1.11-2.55,1.34-3.96
					l0.06-0.34c0.6-4.15,1.26-7.28,2.14-10.14c0.66-2.61,2.44-7.32,6.84-9.34c0.98-0.48,2.09-0.8,3.19-0.95
					c0.47-0.07,0.94-0.09,1.4-0.12c0.63-0.04,1.22-0.07,1.79-0.2l0.06-0.01c0.87-0.16,1.62-0.77,1.97-1.6
					c0.31-0.73,0.24-1.52-0.19-2.16c-0.53-0.82-1.47-1.32-2.78-1.52c-4.71-0.5-9.79,1.62-13.24,5.51c-0.28,0.29-0.54,0.62-0.81,0.97
					c-0.43,0.55-0.87,1.13-1.4,1.52c-0.28,0.19-0.54,0.23-0.78,0.15c-0.5-0.17-0.72-0.83-1-1.66c-0.32-0.95-0.71-2.12-1.57-2.56
					l-0.03-0.02c-0.33-0.21-0.69-0.32-1.06-0.32C188.37,150.06,188.1,150.12,187.84,150.23z"/>
			</g>
			<g>
				<g>
					<path fill="#FFEEBE" d="M251.66,132.5c-0.42,0.12-0.8,0.27-1.18,0.32c-1.17,0.15-2.15-0.22-2.82-1.21
						c-0.64-0.95-0.6-1.97-0.03-2.93c0.61-1.02,1.57-1.45,2.74-1.4c0.39,0.02,0.77,0.13,1.14,0.28c0.6,0.24,0.63,0.22,0.67-0.45
						c0.04-0.72-0.05-1.43-0.25-2.12c-0.32-1.15-0.83-2.21-1.64-3.1c-1.68-1.85-3.74-3.06-6.26-3.26c-2.08-0.17-3.98,0.47-5.65,1.74
						c-0.3,0.23-0.42,0.45-0.19,0.8c0.09,0.14,0.14,0.32,0.17,0.48c0.09,0.51-0.15,1.01-0.6,1.24c-0.46,0.24-0.99,0.16-1.36-0.2
						c-0.1-0.1-0.19-0.22-0.27-0.35c-0.84-1.44-2.03-2.52-3.39-3.44c-2.97-2-6.22-3.25-9.8-3.56c-0.56-0.05-1.13-0.03-1.7-0.01
						c-0.38,0.02-0.66,0.13-0.75,0.55c-0.05,0.24-0.17,0.46-0.33,0.66c-0.37,0.47-0.94,0.61-1.45,0.37
						c-0.51-0.24-0.77-0.79-0.62-1.36c0.1-0.4,0.27-0.79,0.38-1.2c0.93-3.46,0.01-6.46-2.51-8.89c-2.6-2.51-5.74-3.05-9.16-1.91
						c-0.66,0.22-1.25,0.57-1.69,1.14c0.16,0.29,0.46,0.29,0.69,0.41c1.57,0.79,2.36,2.47,1.89,4.06c-0.52,1.77-2.32,2.37-3.8,1.28
						c-0.72-0.53-1.17-1.25-1.48-2.07c-0.07-0.2-0.07-0.44-0.28-0.61c-0.74,0.39-1.14,1.05-1.43,1.79
						c-0.39,0.98-0.46,2.01-0.38,3.05c0.09,1.29,0.45,2.51,1.12,3.63c0.28,0.48,0.3,0.48,0.82,0.27c0.82-0.32,1.65-0.64,2.52-0.82
						c0.19-0.04,0.39-0.09,0.58-0.09c0.62,0,1.11,0.4,1.21,0.97c0.1,0.54-0.2,1.06-0.76,1.29c-0.13,0.06-0.28,0.1-0.42,0.13
						c-3.86,0.92-6.8,3.19-8.95,6.43c-3.79,5.69-4.64,11.85-2.6,18.39c0.24,0.78,0.59,1.51,0.95,2.24c0.11,0.22,0.21,0.45,0.27,0.68
						c0.12,0.51-0.11,1-0.56,1.25c-0.45,0.26-0.97,0.19-1.36-0.16c-0.3-0.27-0.46-0.64-0.63-0.99c-0.94-1.94-1.58-3.98-1.87-6.11
						c-0.79-5.64,0.28-10.91,3.24-15.78c1.39-2.3,3.18-4.24,5.4-5.78c0.61-0.42,0.53-0.36,0.18-0.96c-1.32-2.24-1.85-4.65-1.35-7.23
						c0.42-2.22,1.62-3.88,3.73-4.79c0.29-0.13,0.47-0.29,0.59-0.6c0.5-1.33,1.45-2.27,2.71-2.89c2.68-1.31,5.45-1.41,8.25-0.51
						c4.85,1.56,7.88,6.15,7.86,11.16c0,0.17-0.05,0.34,0.05,0.51c0.33,0.1,0.48-0.18,0.68-0.34c2.71-2.17,5.4-4.35,8.11-6.52
						c0.88-0.71,1.76-1.42,2.64-2.13c0.13-0.1,0.3-0.18,0.34-0.36c-0.07-0.12-0.2-0.13-0.31-0.19c-0.7-0.38-0.87-1.01-0.39-1.66
						c0.33-0.45,0.73-0.86,1.1-1.29c0.33-0.39,0.34-0.4-0.01-0.78c-0.27-0.29-0.56-0.55-0.84-0.83c-0.52-0.5-0.65-0.99-0.41-1.51
						c0.24-0.51,0.83-0.8,1.5-0.68c0.48,0.09,0.95,0.24,1.43,0.36c0.17,0.04,0.34,0.08,0.5,0.15c0.51,0.22,0.92,0.15,1.29-0.31
						c0.22-0.28,0.54-0.51,0.84-0.71c0.8-0.52,1.6-0.26,1.99,0.61c0.17,0.37,0.19,0.76,0.17,1.16c-0.01,0.35,0.13,0.54,0.47,0.64
						c0.33,0.09,0.66,0.2,0.95,0.39c1,0.68,0.96,1.77-0.09,2.37c-0.3,0.17-0.64,0.26-0.97,0.34c-0.32,0.07-0.43,0.25-0.42,0.58
						c0.02,0.52,0,1.03-0.01,1.55c0,0.07,0,0.15,0,0.22c-0.03,0.67-0.13,1.31-0.86,1.57c-0.69,0.25-1.17-0.13-1.59-0.63
						c-0.07-0.09-0.13-0.22-0.28-0.2c-0.18,0.53-0.46,13.2-0.32,14.08c0.21,0.04,0.3-0.13,0.43-0.23c1.73-1.37,3.71-2.13,5.9-2.28
						c1.76-0.12,3.41,0.34,4.98,1.11c2.17,1.06,3.98,2.53,5.17,4.67c0.74,1.33,1.18,2.75,1.3,4.27c0.09,1.1-0.06,2.16-0.49,3.18
						c-0.13,0.31-0.16,0.59-0.05,0.92c0.45,1.33,0.28,2.63-0.37,3.85c-0.98,1.84-2.51,2.99-4.52,3.5c-0.78,0.2-0.77,0.2-0.61,1
						c0.29,1.39,0.36,2.78,0.05,4.17c-0.05,0.22-0.11,0.43-0.22,0.62c-0.28,0.45-0.75,0.65-1.27,0.54c-0.5-0.11-0.86-0.51-0.88-1.04
						c-0.01-0.27,0.02-0.54,0.07-0.81c0.22-1.31,0.07-2.6-0.32-3.86c-0.09-0.29-0.22-0.52-0.46-0.73c-0.48-0.41-0.6-0.9-0.4-1.38
						c0.2-0.47,0.65-0.75,1.25-0.72c0.54,0.02,1.08,0.05,1.62-0.02c1.53-0.2,2.72-0.94,3.51-2.28
						C251.61,133.02,251.77,132.82,251.66,132.5z M234.59,105.53c-1.4,0.92-9.14,7.23-9.43,7.69c3.3,0.65,6.32,1.93,9.19,3.86
						C234.43,113.19,234.5,109.42,234.59,105.53z M250.23,129.68c-0.23,0.01-0.45,0.04-0.56,0.28c-0.05,0.12-0.05,0.24,0.04,0.34
						c0.17,0.19,0.4,0.19,0.61,0.1c0.22-0.09,0.53-0.18,0.47-0.46C250.75,129.72,250.44,129.73,250.23,129.68z M204.59,107.24
						c0.13,0.56,0.3,0.96,0.72,1.27C205.44,107.8,205.34,107.62,204.59,107.24z"/>
				</g>
				<g>
					<path fill="#FFEEBE" d="M216.93,128.99c2.2,0.22,4.15,0.92,5.54,2.77c0.01,0.02,0.03,0.04,0.04,0.06
						c1.11,1.66,0.41,3.28-1.58,3.57c-1.74,0.25-3.3-0.29-4.75-1.21c-0.78-0.49-1.45-1.1-1.88-1.93c-0.69-1.36-0.15-2.64,1.3-3.08
						C216.03,129.03,216.47,128.98,216.93,128.99z"/>
				</g>
				<g>
					<path fill="#FFEEBE" d="M240.58,125.79c-0.01-1.61,1.28-2.95,2.84-2.96c1.56-0.02,2.76,1.22,2.76,2.83
						c-0.01,1.61-1.3,2.93-2.88,2.92C241.78,128.56,240.59,127.35,240.58,125.79z"/>
				</g>
				<g>
					<path fill="#FFEEBE" d="M214.3,113.1c-0.01,1.62-1.29,2.92-2.88,2.92c-1.53,0-2.72-1.21-2.72-2.78
						c-0.01-1.64,1.32-2.99,2.92-2.97C213.14,110.3,214.31,111.52,214.3,113.1z"/>
				</g>
				<g>
					<path fill="#FFEEBE" d="M210.35,130.06c-0.81,0.01-1.46-0.52-1.63-1.33c-0.29-1.37,0.8-2.97,2.18-3.22
						c0.68-0.12,1.37,0.21,1.68,0.8C213.37,127.81,212.04,130.05,210.35,130.06z"/>
				</g>
				<g>
					<path fill="#FFEEBE" d="M229.12,133.27c0,1.22-0.89,2.4-2.03,2.69c-1.03,0.26-1.94-0.36-2.08-1.41
						c-0.17-1.26,0.76-2.67,1.99-3.02C228.16,131.2,229.12,131.99,229.12,133.27z"/>
				</g>
				<g>
					<path fill="#FFEEBE" d="M220.89,141.46c-1.98,0-3.68-1.22-4.27-2.87c-0.18-0.52-0.07-0.91,0.31-1.08
						c0.38-0.18,0.74-0.01,0.98,0.51c0.18,0.38,0.37,0.75,0.66,1.06c0.72,0.77,1.59,1.14,2.66,0.88c0.55-0.13,0.97-0.46,1.28-0.93
						c0.11-0.16,0.21-0.34,0.34-0.48c0.21-0.21,0.47-0.26,0.75-0.13c0.29,0.15,0.43,0.39,0.39,0.73c-0.02,0.2-0.12,0.37-0.23,0.54
						C223.04,140.83,221.99,141.41,220.89,141.46z"/>
				</g>
			</g>
		</g>
	</g>
</g>
</svg>
